<?xml version="1.0" encoding="UTF-8" standalone="no"?>
<!-- Generator: Adobe Illustrator 13.0.2, SVG Export Plug-In . SVG Version: 6.00 Build 14948)  -->

<svg
   xmlns:dc="http://purl.org/dc/elements/1.1/"
   xmlns:cc="http://creativecommons.org/ns#"
   xmlns:rdf="http://www.w3.org/1999/02/22-rdf-syntax-ns#"
   xmlns:svg="http://www.w3.org/2000/svg"
   xmlns="http://www.w3.org/2000/svg"
   xmlns:sodipodi="http://sodipodi.sourceforge.net/DTD/sodipodi-0.dtd"
   xmlns:inkscape="http://www.inkscape.org/namespaces/inkscape"
   version="1.2"
   id="Layer_1"
   x="0px"
   y="0px"
   viewBox="0 0 377.95274 386.10997"
   xml:space="preserve"
   sodipodi:docname="oshw-logo.svg"
   width="100mm"
   height="102.15827mm"
   inkscape:version="0.92.1 r15371"><metadata
     id="metadata113"><rdf:RDF><cc:Work
         rdf:about=""><dc:format>image/svg+xml</dc:format><dc:type
           rdf:resource="http://purl.org/dc/dcmitype/StillImage" /><dc:title></dc:title></cc:Work></rdf:RDF></metadata><defs
     id="defs111" /><sodipodi:namedview
     pagecolor="#ffffff"
     bordercolor="#666666"
     borderopacity="1"
     objecttolerance="10"
     gridtolerance="10"
     guidetolerance="10"
     inkscape:pageopacity="0"
     inkscape:pageshadow="2"
     inkscape:window-width="1274"
     inkscape:window-height="1041"
     id="namedview109"
     showgrid="false"
     inkscape:zoom="16"
     inkscape:cx="180.68628"
     inkscape:cy="182.69525"
     inkscape:window-x="3570"
     inkscape:window-y="862"
     inkscape:window-maximized="0"
     inkscape:current-layer="layer1"
     units="mm" /><g
     style="display:inline"
     inkscape:label="Mask"
     id="g133"
     inkscape:groupmode="layer"
     transform="translate(102.70935,84.091802)"><path
       style="fill:#0099b0;stroke-width:0.1974927"
       d="m 84.542545,91.661322 c -1.101159,0.565659 -0.575039,2.157364 -0.935937,3.142311 -0.64821,1.16688 -2.5412,1.974643 -3.483984,0.688962 -0.958314,-1.005804 -2.4109,-1.637498 -3.256412,-0.138185 -0.859393,0.869 -2.346138,2.039558 -0.860332,3.122041 0.976774,0.909066 1.495953,2.225179 0.512483,3.376079 -0.534472,1.44633 -2.683544,0.48325 -3.764822,1.40995 -0.119318,1.33784 -0.444675,3.09633 0.260021,4.20577 1.056349,0.50536 2.542699,-0.0129 3.338917,0.99901 0.867158,1.23409 0.766009,2.73095 -0.446714,3.6768 -1.44143,1.30412 0.458143,2.49903 1.372267,3.39423 0.90168,1.50114 2.147856,-0.0528 3.050335,-0.65727 0.730799,-1.17986 2.265617,1.20051 2.633818,-0.51576 0.730436,-1.86649 1.65668,-3.65816 2.235712,-5.58225 -0.585473,-0.90451 -1.854338,-1.22901 -2.083323,-2.41296 -0.787303,-2.15782 1.226709,-4.7914 3.552037,-4.36216 2.501293,0.17242 3.79296,3.61259 2.116402,5.44192 -1.033329,0.63106 -1.968718,1.54521 -0.964313,2.73404 0.658126,1.60333 1.229269,3.2482 2.04612,4.78123 0.915381,0.23876 1.831726,-1.06799 2.573644,0.073 0.788654,0.74186 2.080329,1.87695 2.842899,0.42881 1.072639,-0.86444 2.775471,-2.22202 1.173396,-3.4887 -1.310094,-1.00182 -1.024124,-2.65107 -0.04791,-3.76957 0.936214,-0.83758 2.595659,-0.0478 3.428381,-1.08097 -0.107488,-1.28487 0.32837,-2.67907 -0.140137,-3.9307 -1.176459,-0.75386 -3.289439,0.0472 -3.83524,-1.54688 -0.965837,-1.25467 -0.05042,-2.488889 0.832444,-3.420112 1.353744,-1.164444 -0.552962,-2.0824 -1.169141,-2.998649 -1.037429,-1.760367 -2.564184,-0.172276 -3.643369,0.637194 -1.149332,0.784932 -3.11672,-0.342772 -3.086925,-1.744267 -0.06235,-1.024857 -0.07936,-2.92775 -1.636964,-2.464507 -0.871117,1.98e-4 -1.742256,-0.0024 -2.613357,0.0016 z"
       id="path131"
       inkscape:connector-curvature="0" /><path
       style="fill:#ff0000;stroke-width:0.03491211"
       d="m 78.026036,116.13551 c -0.08287,-0.0161 -0.203942,-0.0622 -0.269049,-0.10243 -0.120491,-0.0745 -0.435625,-0.40298 -0.435625,-0.45412 0,-0.0155 -0.223874,-0.22833 -0.497498,-0.47305 -1.110198,-0.99293 -1.456157,-1.48975 -1.416101,-2.0336 0.02576,-0.3497 0.15051,-0.55369 0.629529,-1.02938 0.623398,-0.61907 0.847511,-1.06064 0.890041,-1.75364 0.04188,-0.68244 -0.266306,-1.54645 -0.706362,-1.98029 -0.347429,-0.34252 -0.766051,-0.48185 -1.701544,-0.56632 -0.717683,-0.0648 -0.942919,-0.10035 -1.258546,-0.19862 -0.226188,-0.0704 -0.241885,-0.0824 -0.326687,-0.24977 -0.355372,-0.70129 -0.415124,-1.55173 -0.236361,-3.36406 0.04295,-0.43543 0.07738,-0.64089 0.114739,-0.68462 0.08998,-0.10533 0.531839,-0.29863 0.808106,-0.35352 0.144012,-0.0286 0.566559,-0.0766 0.938992,-0.10662 0.372433,-0.03 0.788389,-0.0778 0.924346,-0.10616 0.463048,-0.0965 0.802125,-0.32533 0.967478,-0.65278 0.04161,-0.0824 0.126735,-0.22053 0.189164,-0.30693 0.471229,-0.65223 0.538949,-1.41129 0.192346,-2.15599 -0.177356,-0.381061 -0.350063,-0.607733 -0.811251,-1.06474 -0.52191,-0.517178 -0.619667,-0.679291 -0.620216,-1.028514 -7.29e-4,-0.461398 0.209238,-0.806001 0.976445,-1.602586 0.29804,-0.309452 0.604732,-0.653441 0.681539,-0.764418 0.382861,-0.553193 0.991892,-0.742981 1.682707,-0.52437 0.422089,0.133572 0.795975,0.386392 1.316572,0.89026 0.482832,0.467315 0.664786,0.584429 1.02606,0.660416 0.249197,0.05241 0.413448,0.04903 0.732908,-0.01512 0.511226,-0.102651 1.182338,-0.497083 1.502787,-0.883233 0.357139,-0.430359 0.405541,-0.600157 0.46071,-1.616199 0.03708,-0.682877 0.0948,-1.06904 0.196013,-1.311305 0.08403,-0.201128 0.250675,-0.415754 0.406976,-0.52414 l 0.140307,-0.0973 1.451928,-0.02692 c 0.798561,-0.01481 1.546432,-0.02879 1.661938,-0.03107 0.256596,-0.0051 0.436089,0.07723 0.625385,0.286753 0.302442,0.334767 0.433426,0.867317 0.506176,2.05798 0.01868,0.305798 0.0544,0.575339 0.0902,0.680786 0.277958,0.818584 1.233211,1.483633 2.129261,1.482395 0.501803,-6.93e-4 0.686897,-0.08461 1.377099,-0.624318 1.083816,-0.847506 1.541584,-1.077305 2.076428,-1.042365 0.412039,0.02692 0.7117,0.233289 1.021015,0.703159 0.0988,0.150082 0.394595,0.47831 0.743704,0.825246 0.608136,0.60435 0.773088,0.80846 0.879339,1.088093 0.150644,0.396458 0.04953,0.665894 -0.446136,1.188865 -0.441564,0.465885 -0.745819,0.876073 -0.939512,1.266621 -0.213225,0.42993 -0.273581,0.689484 -0.251675,1.082274 0.01922,0.34465 0.09115,0.56649 0.280913,0.86637 0.06299,0.0995 0.158151,0.27117 0.211463,0.38137 0.193202,0.39937 0.561873,0.66261 1.113437,0.79502 0.158362,0.038 0.591417,0.10105 0.962349,0.14008 0.37093,0.039 0.781843,0.0935 0.913141,0.12117 0.265444,0.0558 0.676902,0.21058 0.72998,0.27453 0.07168,0.0864 0.181287,0.57957 0.218925,0.98507 0.03167,0.34124 0.02821,0.58726 -0.01819,1.29175 -0.03153,0.47863 -0.05724,1.0536 -0.05715,1.27773 l 1.8e-4,0.40749 -0.147314,0.1261 c -0.338976,0.29015 -0.651467,0.37493 -1.669463,0.45295 -0.373692,0.0286 -0.773701,0.0767 -0.888913,0.10687 -0.229875,0.0601 -0.515974,0.19189 -0.634637,0.29225 -0.133917,0.11326 -0.429184,0.52827 -0.558791,0.7854 -0.41751,0.82831 -0.457448,1.5928 -0.118907,2.27601 0.141101,0.28475 0.268065,0.43187 0.827008,0.9583 0.132519,0.12481 0.288076,0.31333 0.345681,0.41894 0.09555,0.17517 0.104736,0.22111 0.104736,0.52368 0,0.30868 -0.0087,0.34982 -0.125274,0.59351 -0.215739,0.45093 -0.610882,0.88688 -1.393325,1.53721 -0.14397,0.11966 -0.311675,0.29167 -0.372676,0.38226 -0.142774,0.212 -0.40224,0.43985 -0.560295,0.49201 -0.07169,0.0237 -0.230978,0.0341 -0.37746,0.0247 -0.207934,-0.0134 -0.306485,-0.0425 -0.548953,-0.16266 -0.35427,-0.17549 -0.950548,-0.64373 -1.255388,-0.98582 -0.290689,-0.3262 -0.45475,-0.42185 -0.723561,-0.42185 -0.229041,0 -0.314567,0.0225 -0.822515,0.21672 -0.407828,0.15591 -0.733952,0.22665 -0.900691,0.19537 -0.114338,-0.0215 -0.129306,-0.0444 -0.417645,-0.64135 -0.381762,-0.79031 -0.599836,-1.30291 -1.21415,-2.85393 -0.310519,-0.784 -0.54172,-1.31732 -0.614912,-1.41845 -0.06451,-0.0891 -0.160404,-0.25409 -0.213096,-0.36657 -0.08229,-0.17567 -0.09578,-0.24884 -0.09561,-0.51873 1.71e-4,-0.27824 0.01209,-0.33818 0.10418,-0.52368 0.130635,-0.26315 0.667266,-0.80791 1.014531,-1.02991 0.135165,-0.0864 0.304247,-0.2278 0.375737,-0.31421 0.177457,-0.21448 0.422881,-0.69869 0.513853,-1.0138 0.09646,-0.33411 0.131079,-1.03958 0.0698,-1.42211 -0.127431,-0.79539 -0.495945,-1.5135 -1.054049,-2.05399 -0.592986,-0.57428 -1.181208,-0.80542 -2.141426,-0.8415 -0.420644,-0.0158 -0.532564,-0.008 -0.802978,0.0564 -1.108126,0.26367 -2.080155,1.22913 -2.448789,2.43224 -0.08702,0.28399 -0.09568,0.36277 -0.09764,0.8877 -0.0021,0.55105 0.0027,0.59244 0.1106,0.95386 0.204974,0.68683 0.397758,0.95157 1.103021,1.51475 0.499796,0.3991 0.837129,0.71309 0.933316,0.86872 l 0.069,0.11165 -0.0915,0.29168 c -0.19322,0.61597 -0.571046,1.57129 -1.219965,3.08465 -0.742299,1.73114 -0.871937,2.04601 -0.948681,2.3042 -0.161605,0.54369 -0.407988,0.62304 -1.075136,0.34626 -0.584976,-0.24269 -0.746712,-0.29389 -0.928363,-0.29389 -0.229891,0 -0.330535,0.0457 -0.521223,0.23691 -0.162189,0.16259 -0.509776,0.4444 -1.0753,0.87181 -0.330863,0.25006 -0.697582,0.44592 -0.898833,0.48005 -0.07552,0.0128 -0.160882,0.0279 -0.189684,0.0335 -0.0288,0.006 -0.120171,-0.003 -0.203041,-0.0191 z"
       id="path466"
       inkscape:connector-curvature="0" /></g><g
     inkscape:groupmode="layer"
     id="layer2"
     inkscape:label="SilkS"
     transform="translate(102.70935,84.091802)"><path
       inkscape:connector-curvature="0"
       style="fill:#0099b0;fill-rule:evenodd;stroke-width:0.1974927"
       d="m 78.264226,126.29609 h 0.713541 v -2.42007 c 0,-0.8741 -0.601563,-1.16797 -1.475863,-1.16797 -0.53165,0 -0.923278,0.13962 -1.196016,0.51763 l 0.559497,0.42658 c 0.125803,-0.20282 0.300781,-0.27313 0.671475,-0.27313 0.510519,0 0.727366,0.11928 0.727366,0.45482 v 0.3707 h -0.986279 c -0.762322,0 -1.15395,0.48287 -1.15395,1.04928 0,0.61558 0.461541,1.08423 1.251907,1.08423 0.482672,0 0.727563,-0.11178 0.8743,-0.35687 h 0.01402 z m 0,-1.24519 c 0,0.55279 -0.202825,0.61559 -0.797278,0.61559 -0.482672,0 -0.671673,-0.20994 -0.671673,-0.44752 0,-0.25891 0.195913,-0.42698 0.615782,-0.42698 h 0.853169 z"
       id="path247" /><path
       inkscape:connector-curvature="0"
       style="fill:#0099b0;fill-rule:evenodd;stroke-width:0.1974927"
       d="m 79.761418,126.29609 h 0.713344 v -2.13351 c 0,-0.51723 0.342847,-0.74139 0.692607,-0.74139 0.181891,0 0.300781,0.049 0.46865,0.17518 l 0.517431,-0.61559 c -0.216847,-0.16786 -0.454431,-0.27273 -0.741388,-0.27273 -0.377606,0 -0.699519,0.14002 -0.923278,0.41967 h -0.01402 v -0.37761 H 79.76142 Z"
       id="path249" /><path
       inkscape:connector-curvature="0"
       style="fill:#0099b0;fill-rule:evenodd;stroke-width:0.1974927"
       d="m 84.287359,126.29609 h 0.713343 v -4.98017 h -0.713343 v 1.8118 c -0.265826,-0.2518 -0.552585,-0.41967 -0.916367,-0.41967 -0.433694,0 -0.748299,0.19552 -0.951124,0.46174 -0.195913,0.2514 -0.251804,0.48207 -0.251804,1.35006 0,0.8741 0.05589,1.10477 0.251804,1.35657 0.202825,0.26583 0.51743,0.46174 0.951124,0.46174 0.363782,0 0.692607,-0.16826 0.916367,-0.41276 z m -0.69952,-2.8749 c 0.664563,0 0.69952,0.58794 0.69952,1.09866 0,0.51762 -0.03496,1.10477 -0.69952,1.10477 -0.671475,0 -0.706431,-0.55239 -0.706431,-1.10477 0,-0.54587 0.03496,-1.09866 0.706431,-1.09866"
       id="path251" /><path
       style="fill:#0099b0;fill-rule:evenodd;stroke-width:0.1974927"
       d="m 89.648694,122.75011 -0.677993,2.48288 h -0.01442 l -0.804191,-2.48288 h -0.517628 l -0.80419,2.48288 h -0.01402 l -0.678585,-2.48288 h -0.755212 l 1.133015,3.54599 h 0.62941 l 0.741388,-2.48308 h 0.01402 l 0.741387,2.48308 h 0.629804 l 1.132818,-3.54599 z"
       id="polygon253"
       inkscape:connector-curvature="0" /><path
       inkscape:connector-curvature="0"
       style="fill:#0099b0;fill-rule:evenodd;stroke-width:0.1974927"
       d="m 92.600023,126.29609 h 0.713541 v -2.42007 c 0,-0.8741 -0.60176,-1.16797 -1.475862,-1.16797 -0.531454,0 -0.923477,0.13962 -1.196214,0.51763 l 0.559694,0.42658 c 0.125803,-0.20282 0.300387,-0.27313 0.67108,-0.27313 0.510716,0 0.727563,0.11928 0.727563,0.45482 v 0.3707 h -0.986278 c -0.762125,0 -1.154148,0.48287 -1.154148,1.04928 0,0.61558 0.461738,1.08423 1.252105,1.08423 0.482474,0 0.727562,-0.11178 0.874497,-0.35687 h 0.01382 v 0.3148 z m 0,-1.24519 c 0,0.55279 -0.202825,0.61559 -0.797278,0.61559 -0.482475,0 -0.671475,-0.20994 -0.671475,-0.44752 0,-0.25891 0.195913,-0.42698 0.615585,-0.42698 h 0.853168 z"
       id="path255" /><path
       inkscape:connector-curvature="0"
       style="fill:#0099b0;fill-rule:evenodd;stroke-width:0.1974927"
       d="m 94.097413,126.29609 h 0.713146 v -2.13351 c 0,-0.51723 0.342452,-0.74139 0.69241,-0.74139 0.182088,0 0.300781,0.049 0.46865,0.17518 l 0.517628,-0.61559 c -0.216847,-0.16786 -0.454826,-0.27273 -0.741387,-0.27273 -0.377607,0 -0.699322,0.14002 -0.923082,0.41967 h -0.01422 v -0.37761 h -0.713146 z"
       id="path257" /><path
       inkscape:connector-curvature="0"
       style="fill:#0099b0;fill-rule:evenodd;stroke-width:0.1974927"
       d="m 99.425766,124.79239 v -0.58794 c 0,-0.91617 -0.67819,-1.4966 -1.461446,-1.4966 -0.685497,0 -1.461841,0.44752 -1.461841,1.82523 0,1.45493 0.846257,1.80488 1.573819,1.80488 0.475563,0 0.929994,-0.16787 1.279753,-0.57352 l -0.517628,-0.4408 c -0.209935,0.21724 -0.503804,0.34285 -0.776147,0.34285 -0.489782,0 -0.846255,-0.29387 -0.846255,-0.8741 z m -2.209745,-0.58774 c 0.01382,-0.53857 0.328627,-0.82552 0.748299,-0.82552 0.419672,0 0.727563,0.28695 0.7483,0.82552 z"
       id="path259" /><path
       inkscape:connector-curvature="0"
       style="fill:#0099b0;fill-rule:evenodd;stroke-width:0.1974927"
       d="m 69.259151,118.91856 c 0,0.76923 0.11178,1.0631 0.384518,1.36388 0.195913,0.21685 0.524738,0.45443 1.077323,0.45443 0.552387,0 0.881212,-0.23758 1.077125,-0.45443 0.272737,-0.30078 0.384716,-0.59485 0.384716,-1.36388 0,-0.76252 -0.111979,-1.05619 -0.384716,-1.35698 -0.195913,-0.21684 -0.524738,-0.45482 -1.077125,-0.45482 -0.552585,0 -0.88141,0.23798 -1.077323,0.45482 -0.272738,0.30098 -0.384518,0.59446 -0.384518,1.35698 m 2.210141,0.007 c 0,0.51071 -0.04187,0.65034 -0.174781,0.83934 -0.105066,0.14694 -0.328826,0.25892 -0.573519,0.25892 -0.244891,0 -0.46865,-0.11179 -0.573519,-0.25892 -0.132913,-0.189 -0.174979,-0.32863 -0.174979,-0.84625 0,-0.51072 0.04207,-0.65074 0.174979,-0.83935 0.104869,-0.14693 0.328628,-0.25891 0.573519,-0.25891 0.244693,0 0.468453,0.11178 0.573519,0.25891 0.132912,0.18861 0.174781,0.32863 0.174781,0.84626"
       id="path261" /><path
       inkscape:connector-curvature="0"
       style="fill:#0099b0;fill-rule:evenodd;stroke-width:0.1974927"
       d="m 79.028918,119.19129 v -0.58754 c 0,-0.91656 -0.678388,-1.49699 -1.461644,-1.49699 -0.685695,0 -1.461841,0.44791 -1.461841,1.82562 0,1.45454 0.846256,1.80449 1.573622,1.80449 0.47576,0 0.930191,-0.16787 1.27995,-0.57352 l -0.517628,-0.4404 c -0.209737,0.21684 -0.503409,0.34284 -0.776147,0.34284 -0.489781,0 -0.846453,-0.29387 -0.846453,-0.8745 z m -2.210141,-0.58734 c 0.01402,-0.53896 0.328825,-0.82552 0.748497,-0.82552 0.419672,0 0.727366,0.28656 0.7483,0.82552 z"
       id="path263" /><path
       inkscape:connector-curvature="0"
       style="fill:#0099b0;fill-rule:evenodd;stroke-width:0.1974927"
       d="m 79.637788,120.69481 h 0.713343 v -2.11179 c 0,-0.48287 0.300782,-0.76252 0.706432,-0.76252 0.398738,0 0.699519,0.27965 0.699519,0.76252 v 2.11179 h 0.713344 v -2.35688 c 0,-0.80459 -0.62941,-1.23117 -1.181994,-1.23117 -0.377606,0 -0.699519,0.14002 -0.923081,0.41967 h -0.01422 v -0.37761 h -0.713343 z"
       id="path265" /><path
       inkscape:connector-curvature="0"
       style="fill:#0099b0;fill-rule:evenodd;stroke-width:0.1974927"
       d="m 84.399337,120.10055 c 0.454628,0.42659 0.986279,0.63652 1.559797,0.63652 0.825323,0 1.468754,-0.39854 1.468754,-1.09115 0,-0.56621 -0.293474,-1.01412 -1.028147,-1.0631 l -0.587541,-0.0417 c -0.356672,-0.0282 -0.468453,-0.18209 -0.468453,-0.33594 0,-0.24449 0.153847,-0.42658 0.608278,-0.42658 0.384913,0 0.67187,0.13311 0.95152,0.32863 l 0.440408,-0.51724 c -0.349759,-0.29387 -0.769234,-0.48287 -1.392126,-0.48287 -0.7483,0 -1.321819,0.3707 -1.321819,1.09115 0,0.60828 0.433694,0.95824 1.021038,1.00721 l 0.629607,0.0559 c 0.245088,0.0207 0.433694,0.098 0.433694,0.34976 0,0.30079 -0.294067,0.45444 -0.69952,0.45444 -0.475562,0 -0.8113,-0.15346 -1.118993,-0.45444 z"
       id="path267" /><path
       inkscape:connector-curvature="0"
       style="fill:#0099b0;fill-rule:evenodd;stroke-width:0.1974927"
       d="m 87.833538,118.91856 c 0,0.76923 0.112176,1.0631 0.384913,1.36388 0.195913,0.21685 0.524541,0.45443 1.076927,0.45443 0.552782,0 0.88141,-0.23758 1.077322,-0.45443 0.272737,-0.30078 0.384518,-0.59485 0.384518,-1.36388 0,-0.76252 -0.111781,-1.05619 -0.384518,-1.35698 -0.195912,-0.21684 -0.52454,-0.45482 -1.077322,-0.45482 -0.552386,0 -0.881014,0.23798 -1.076927,0.45482 -0.272737,0.30098 -0.384913,0.59446 -0.384913,1.35698 m 2.21014,0.007 c 0,0.51071 -0.04167,0.65034 -0.174781,0.83934 -0.104869,0.14694 -0.328628,0.25892 -0.573519,0.25892 -0.244497,0 -0.468649,-0.11179 -0.573123,-0.25892 -0.13311,-0.189 -0.175176,-0.32863 -0.175176,-0.84625 0,-0.51072 0.04207,-0.65074 0.175176,-0.83935 0.104474,-0.14693 0.328626,-0.25891 0.573123,-0.25891 0.244891,0 0.46865,0.11178 0.573519,0.25891 0.13311,0.18861 0.174781,0.32863 0.174781,0.84626"
       id="path269" /><path
       inkscape:connector-curvature="0"
       style="fill:#0099b0;fill-rule:evenodd;stroke-width:0.1974927"
       d="m 91.366286,119.5061 c 0,0.80419 0.629607,1.23077 1.189103,1.23077 0.370299,0 0.69241,-0.14002 0.916169,-0.41967 h 0.01382 v 0.378 h 0.713146 v -3.54638 h -0.713146 v 2.11219 c 0,0.48247 -0.300782,0.76252 -0.699717,0.76252 -0.405453,0 -0.706233,-0.28005 -0.706233,-0.76252 v -2.11219 h -0.713147 z"
       id="path271" /><path
       inkscape:connector-curvature="0"
       style="fill:#0099b0;fill-rule:evenodd;stroke-width:0.1974927"
       d="m 94.980995,120.69481 h 0.713541 v -2.13312 c 0,-0.51763 0.342453,-0.74139 0.69241,-0.74139 0.182088,0 0.300781,0.049 0.46865,0.17478 l 0.517629,-0.61558 c -0.217242,-0.16787 -0.454431,-0.27274 -0.741388,-0.27274 -0.377606,0 -0.699717,0.14002 -0.923477,0.41967 h -0.01382 v -0.37761 h -0.713541 z"
       id="path273" /><path
       inkscape:connector-curvature="0"
       style="fill:#0099b0;fill-rule:evenodd;stroke-width:0.1974927"
       d="m 99.645181,119.65303 c -0.174782,0.21685 -0.426585,0.3707 -0.720059,0.3707 -0.580431,0 -0.923476,-0.32903 -0.923476,-1.09866 0,-0.77614 0.342848,-1.10477 0.923476,-1.10477 0.293474,0 0.545475,0.15385 0.720059,0.37069 l 0.524539,-0.46865 c -0.307495,-0.35687 -0.734474,-0.61558 -1.27284,-0.61558 -0.818212,0 -1.608578,0.51763 -1.608578,1.81831 0,1.29457 0.790366,1.8118 1.608578,1.8118 0.538563,0 0.965543,-0.25891 1.27284,-0.61519 z"
       id="path275" /><path
       inkscape:connector-curvature="0"
       style="fill:#0099b0;fill-rule:evenodd;stroke-width:0.1974927"
       d="m 103.2749,119.19129 v -0.58754 c 0,-0.91656 -0.67898,-1.49699 -1.46184,-1.49699 -0.68589,0 -1.46184,0.44791 -1.46184,1.82562 0,1.45454 0.84625,1.80449 1.57382,1.80449 0.47556,0 0.93038,-0.16787 1.27975,-0.57352 l -0.51763,-0.4404 c -0.20993,0.21684 -0.50341,0.34284 -0.77615,0.34284 -0.48978,0 -0.84625,-0.29387 -0.84625,-0.8745 z m -2.21014,-0.58734 c 0.0138,-0.53896 0.32863,-0.82552 0.7483,-0.82552 0.41967,0 0.72717,0.28656 0.7483,0.82552 z"
       id="path277" /><path
       inkscape:connector-curvature="0"
       style="fill:#0099b0;stroke-width:0.1974927"
       d="m 74.204566,120.02373 c 0.671475,0 0.706431,-0.55279 0.706431,-1.09826 0,-0.55278 -0.03496,-1.10517 -0.706431,-1.10517 -0.664366,0 -0.69952,0.58754 -0.69952,1.10517 0,0.51072 0.03496,1.09826 0.69952,1.09826 m -1.415628,6.27236 v -9.14707 h 0.716108 v 0.3707 c 0.223957,-0.24489 0.552585,-0.41276 0.916367,-0.41276 0.433496,0 0.748497,0.19591 0.951322,0.46173 0.195715,0.25181 0.251606,0.48248 0.251606,1.35698 0,0.86719 -0.05589,1.09825 -0.251606,1.34966 -0.202825,0.26583 -0.517826,0.46174 -0.951322,0.46174 -0.363782,0 -0.650541,-0.16787 -0.916367,-0.41967 l -0.0026,2.81032 c 0.237781,-0.27965 0.559497,-0.41967 0.937103,-0.41967 0.552584,0 1.181994,0.42658 1.181994,1.23077 v 2.35727 h -0.713344 v -2.11218 c 0,-0.48287 -0.300781,-0.76252 -0.699519,-0.76252 -0.40565,0 -0.706234,0.27965 -0.706234,0.76252 v 2.11218 z"
       id="path279" /></g><g
     inkscape:groupmode="layer"
     id="layer1"
     inkscape:label="Cu"
     style="display:inline"
     transform="translate(102.70935,84.091802)"><path
       d="m 99.330501,103.43087 -3.246582,-0.60374 c -0.079,-0.0148 -0.165499,-0.0891 -0.19216,-0.1653 l -0.995166,-2.32172 c -0.03713,-0.0717 -0.03002,-0.18426 0.0158,-0.25101 l 1.891585,-2.757003 c 0.04523,-0.06636 0.03634,-0.167276 -0.02074,-0.224352 l -2.3626,-2.362605 c -0.05708,-0.05708 -0.157797,-0.06636 -0.224155,-0.02074 l -2.805384,1.925159 c -0.06636,0.04562 -0.180113,0.05372 -0.2522,0.01817 l -2.250628,-0.921304 c -0.07643,-0.02528 -0.150885,-0.110793 -0.165894,-0.189988 l -0.625065,-3.357968 c -0.01462,-0.07919 -0.09262,-0.143973 -0.173201,-0.143973 h -3.341577 c -0.08038,0 -0.158389,0.06478 -0.173003,0.143973 l -0.624867,3.357968 c -0.01501,0.07919 -0.08927,0.164709 -0.165894,0.189988 l -2.250825,0.921304 c -0.07228,0.03555 -0.186038,0.02745 -0.252198,-0.01817 L 78.310561,94.7244 c -0.06656,-0.04562 -0.167474,-0.03634 -0.224352,0.02074 l -2.362803,2.362605 c -0.05688,0.05708 -0.06636,0.157995 -0.02074,0.224352 l 1.891783,2.757003 c 0.04542,0.0667 0.05253,0.17932 0.0156,0.25101 l -0.995363,2.32172 c -0.02646,0.0762 -0.112769,0.15049 -0.192161,0.1653 l -3.246385,0.60374 c -0.07939,0.015 -0.143972,0.0928 -0.143972,0.1734 l 1.98e-4,3.34138 c 0,0.0806 0.06478,0.15898 0.143972,0.1734 l 3.166796,0.58931 c 0.07919,0.0144 0.163919,0.0897 0.188013,0.16649 l 0.988648,2.46965 c 0.03535,0.0725 0.02706,0.18584 -0.01876,0.25219 l -1.798763,2.62133 c -0.04542,0.0663 -0.03614,0.16747 0.02074,0.22454 l 2.363,2.36261 c 0.05688,0.0567 0.157797,0.066 0.224352,0.0207 l 2.574909,-1.76737 c 0.06636,-0.0454 0.177546,-0.049 0.246866,-0.008 l 1.135583,0.6063 c 0.07189,0.0367 0.155822,0.006 0.186631,-0.0687 l 2.341473,-5.65757 c 0.03101,-0.0745 0,-0.16945 -0.06873,-0.21152 l -0.284192,-0.17399 c -0.05253,-0.032 -0.123828,-0.0871 -0.179719,-0.13764 -1.025184,-0.65647 -1.705349,-1.80489 -1.705349,-3.11269 0,-2.04089 1.654594,-3.69528 3.695286,-3.69528 2.040692,0 3.69509,1.65439 3.69509,3.69528 0,1.3078 -0.679967,2.45622 -1.705351,3.11269 -0.05549,0.0506 -0.126987,0.10565 -0.179323,0.13765 l -0.284192,0.17399 c -0.06833,0.0421 -0.09954,0.13706 -0.06873,0.21151 l 2.341278,5.65777 c 0.03081,0.0745 0.114546,0.10527 0.18663,0.0687 l 1.135585,-0.6063 c 0.06952,-0.0405 0.180509,-0.0371 0.246867,0.008 l 2.575105,1.76737 c 0.06636,0.0452 0.167474,0.0359 0.224154,-0.0207 l 2.363,-2.3626 c 0.05708,-0.0571 0.06636,-0.1582 0.02074,-0.22455 l -1.798961,-2.62133 c -0.04542,-0.0663 -0.05392,-0.17971 -0.01856,-0.25219 l 0.98865,-2.46965 c 0.02429,-0.0768 0.108423,-0.15207 0.187815,-0.16649 l 3.166796,-0.58931 c 0.079,-0.0144 0.143972,-0.0928 0.143972,-0.1734 l 3.6e-4,-3.34138 c 1.8e-4,-0.0808 -0.06458,-0.15859 -0.143577,-0.1736"
       id="path72"
       inkscape:connector-curvature="0"
       style="fill:#800080;stroke-width:0.1974927" /></g></svg>